HIERARCHY
ROOT root
{
	OFFSET	0	13.1	24.9
	CHANNELS 6  Xposition Yposition Zposition Xrotation Yrotation Zrotation
	JOINT spine_1
	{
		OFFSET	0	9.99999	0
		CHANNELS 3  Xrotation Yrotation Zrotation
		JOINT spine_2
		{
			OFFSET	0	112	-10
			CHANNELS 3  Xrotation Yrotation Zrotation
			JOINT spine_3
			{
				OFFSET	0	206.5	19.3
				CHANNELS 3  Xrotation Yrotation Zrotation
				JOINT spine_4
				{
					OFFSET	0	110.4	14.6
					CHANNELS 3  Xrotation Yrotation Zrotation
					JOINT neck_1
					{
						OFFSET	0	71.8	-50.3
						CHANNELS 3  Xrotation Yrotation Zrotation
						JOINT neck_2
						{
							OFFSET	0	86.2	-25.8
							CHANNELS 3  Xrotation Yrotation Zrotation
							JOINT head_ee
							{
								OFFSET	0	179.8	-8.7
								CHANNELS 3  Xrotation Yrotation Zrotation
								End Site
								{
									OFFSET	1	0	0
								}
							}
						}
					}
					JOINT left_clavicle
					{
						OFFSET	-43.2	22.4	-70.8
						CHANNELS 3  Xrotation Yrotation Zrotation
						JOINT left_shoulder
						{
							OFFSET	-93.9	-5.79999	48.7
							CHANNELS 3  Xrotation Yrotation Zrotation
							JOINT left_elbow
							{
								OFFSET	-291.4	-30.8	15.2
								CHANNELS 3  Xrotation Yrotation Zrotation
								JOINT left_lowarm_twist
								{
									OFFSET	-110.7	-3.89999	13.6
									CHANNELS 3  Xrotation Yrotation Zrotation
									JOINT left_hand
									{
										OFFSET	-110.7	-3.89999	13.6
										CHANNELS 3  Xrotation Yrotation Zrotation
										JOINT left_ee
										{
											OFFSET	-80.8	-5.10001	12.1
											CHANNELS 3  Xrotation Yrotation Zrotation
											End Site
											{
												OFFSET	1	0	0
											}
										}
									}
								}
							}
						}
					}
					JOINT right_clavicle
					{
						OFFSET	43.2	22.4	-70.8
						CHANNELS 3  Xrotation Yrotation Zrotation
						JOINT right_shoulder
						{
							OFFSET	93.9	-5.79999	48.7
							CHANNELS 3  Xrotation Yrotation Zrotation
							JOINT right_elbow
							{
								OFFSET	291.4	-30.8	15.2
								CHANNELS 3  Xrotation Yrotation Zrotation
								JOINT right_lowarm_twist
								{
									OFFSET	110.7	-3.89999	13.6
									CHANNELS 3  Xrotation Yrotation Zrotation
									JOINT right_hand
									{
										OFFSET	110.7	-3.89999	13.6
										CHANNELS 3  Xrotation Yrotation Zrotation
										JOINT right_ee
										{
											OFFSET	80.8	-5.10001	12.1
											CHANNELS 3  Xrotation Yrotation Zrotation
											End Site
											{
												OFFSET	1	0	0
											}
										}
									}
								}
							}
						}
					}
				}
			}
		}
	}
	JOINT left_hip
	{
		OFFSET	-82.8	-127.5	0.300001
		CHANNELS 3  Xrotation Yrotation Zrotation
		JOINT left_knee
		{
			OFFSET	-28.2	-396.7	2.2
			CHANNELS 3  Xrotation Yrotation Zrotation
			JOINT left_ankle
			{
				OFFSET	-11.7	-411.3	35.4
				CHANNELS 3  Xrotation Yrotation Zrotation
				JOINT left_toes
				{
					OFFSET	0	-60	-88.6
					CHANNELS 3  Xrotation Yrotation Zrotation
					JOINT left_foot_ee
					{
						OFFSET	-22.5	-16.5	-42.2
						CHANNELS 3  Xrotation Yrotation Zrotation
						End Site
						{
							OFFSET	1	0	0
						}
					}
				}
			}
		}
	}
	JOINT right_hip
	{
		OFFSET	82.8	-127.5	0.300001
		CHANNELS 3  Xrotation Yrotation Zrotation
		JOINT right_knee
		{
			OFFSET	28.2	-396.7	2.2
			CHANNELS 3  Xrotation Yrotation Zrotation
			JOINT right_ankle
			{
				OFFSET	11.7	-411.3	35.4
				CHANNELS 3  Xrotation Yrotation Zrotation
				JOINT right_toes
				{
					OFFSET	0	-60	-88.6
					CHANNELS 3  Xrotation Yrotation Zrotation
					JOINT right_foot_ee
					{
						OFFSET	22.5	-16.5	-42.2
						CHANNELS 3  Xrotation Yrotation Zrotation
						End Site
						{
							OFFSET	1	0	0
						}
					}
				}
			}
		}
	}
}
MOTION
Frames: 7
Frame Time: 0.02
1372.05 701.618 -1475.22 -9.72610965641 26.1839452142 4.63697760194 0.527409 0.142222 0.96887 0.527928 0.080285 0.975955 0.529493 -0.117659 0.972158 0.528176 0.037344 0.978539 7.30927 17.5682 1.04007 8.52105 28.7199 1.38034 -0.0 0.0 -0.0 0.371931 16.2241 2.48884 4.12464 -31.0116 61.5885 3.13488 -57.2084 1.70979 -4.84151 -0.19554 0.586992 -1.29949 -7.30046 -11.9557 -0.0 0.0 -0.0 9.31867 9.51559 -18.3584 -26.942 25.0452 -62.8969 0.389433 10.9192 -0.0372212 28.6666 -0.105638 3.62246 0.376259 -14.1633 -8.17546 0.0 0.0 0.0 -4.65977 19.8973 -0.513984 -23.3201 0.24146 3.54586 34.8369 -7.77156 -4.50363 -22.9877 0.0 0.0 -0.0 0.0 -0.0 37.3637 -0.419667 -2.81282 -4.40295 -0.156077 -0.657529 -13.4035 18.4509 -2.25531 -3.81916 0.0 0.0 0.0 0.0 0.0 
1372.05 701.618 -1475.22 -9.70700772282 25.9559270331 4.59351164015 0.527409 0.142222 0.96887 0.527928 0.080285 0.975955 0.529493 -0.117659 0.972158 0.528176 0.037344 0.978539 7.30927 17.5682 1.04007 8.52105 28.7199 1.38034 -0.0 0.0 -0.0 0.371931 16.2241 2.48884 4.12464 -31.0116 61.5885 3.13488 -57.2084 1.70979 -4.84151 -0.19554 0.586992 -1.29949 -7.30046 -11.9557 -0.0 0.0 -0.0 9.31867 9.51559 -18.3584 -26.942 25.0452 -62.8969 0.389433 10.9192 -0.0372212 28.6666 -0.105638 3.62246 0.376259 -14.1633 -8.17546 0.0 0.0 0.0 -4.65977 19.8973 -0.513984 -23.3201 0.24146 3.54586 34.8369 -7.77156 -4.50363 -22.9877 0.0 0.0 -0.0 0.0 -0.0 37.3637 -0.419667 -2.81282 -4.40295 -0.156077 -0.657529 -13.4035 18.4509 -2.25531 -3.81916 0.0 0.0 0.0 0.0 0.0 
1361.51865296 699.77 -1491.45869929 -9.75510652138 24.9138993033 4.40106498252 0.300474 0.188195 1.06605 0.301098 0.119982 1.07586 0.303645 -0.103114 1.07761 0.302031 0.0683578 1.08037 6.75023 15.7276 -2.34127 8.06851 28.7025 -2.5677 -0.0 0.0 -0.0 0.449512 17.1076 2.70078 3.06254 -30.5849 61.359 3.17949 -57.5755 1.74737 -7.00358 -0.298766 0.843445 -0.986459 -10.5267 -11.1985 -0.0 0.0 -0.0 8.51627 9.27848 -16.6363 -23.3329 25.6204 -64.1486 0.465925 12.9968 -0.0530725 28.6236 -0.106839 3.6171 0.558158 -14.5875 -9.48275 0.0 0.0 0.0 -4.53384 17.3641 -0.352226 -27.5804 0.129112 4.18986 33.8742 -8.19294 -4.41619 -22.1929 0.0 0.0 -0.0 0.0 -0.0 37.6415 -2.05136 -2.54545 -6.15377 -0.204013 -0.921935 -11.3364 19.976 -1.92993 -5.29953 0.0 0.0 0.0 0.0 0.0 
1361.66614119 699.77 -1491.55340446 -9.71482937736 24.4024975446 4.30452534781 0.300474 0.188195 1.06605 0.301098 0.119982 1.07586 0.303645 -0.103114 1.07761 0.302031 0.0683578 1.08037 6.75023 15.7276 -2.34127 8.06851 28.7025 -2.5677 -0.0 0.0 -0.0 0.449512 17.1076 2.70078 3.06254 -30.5849 61.359 3.17949 -57.5755 1.74737 -7.00358 -0.298766 0.843445 -0.986459 -10.5267 -11.1985 -0.0 0.0 -0.0 8.51627 9.27848 -16.6363 -23.3329 25.6204 -64.1486 0.465925 12.9968 -0.0530725 28.6236 -0.106839 3.6171 0.558158 -14.5875 -9.48275 0.0 0.0 0.0 -4.53384 17.3641 -0.352226 -27.5804 0.129112 4.18986 33.8742 -8.19294 -4.41619 -22.1929 0.0 0.0 -0.0 0.0 -0.0 37.6415 -2.05136 -2.54545 -6.15377 -0.204013 -0.921935 -11.3364 19.976 -1.92993 -5.29953 0.0 0.0 0.0 0.0 0.0 
1328.31232469 706.464 -1552.75393414 -9.34305574548 24.4053578654 3.0817344916 -0.0443552 0.386901 1.59828 -0.042979 0.284428 1.61965 -0.034066 -0.0632927 1.64321 -0.0377801 0.196981 1.63259 8.41061 13.4925 -3.18941 9.58541 25.3532 -3.83554 -0.0 0.0 -0.0 0.353169 18.4461 2.6907 1.95961 -27.1397 63.0088 2.52353 -51.3337 1.21284 -9.25591 -0.416535 1.10632 -0.358434 -14.882 -8.76141 -0.0 0.0 -0.0 9.26804 9.87114 -18.2426 -16.9372 25.8924 -65.4024 0.236369 6.67853 -0.0137915 27.7365 -0.130748 3.50631 -0.462123 -12.9176 -2.40314 0.0 0.0 0.0 -3.18707 12.369 1.23787 -32.9886 -0.0819579 4.99269 25.1406 -3.98242 -3.40508 -22.8368 0.0 0.0 -0.0 0.0 -0.0 37.4198 -4.05744 -1.60219 -16.0288 -0.321787 -2.43073 -3.05336 14.8179 -0.489991 -3.18554 0.0 0.0 0.0 0.0 0.0 
1329.49369913 706.464 -1553.40859534 -9.28049712244 23.5474913138 2.92779038106 -0.0443552 0.386901 1.59828 -0.042979 0.284428 1.61965 -0.034066 -0.0632927 1.64321 -0.0377801 0.196981 1.63259 8.41061 13.4925 -3.18941 9.58541 25.3532 -3.83554 -0.0 0.0 -0.0 0.353169 18.4461 2.6907 1.95961 -27.1397 63.0088 2.52353 -51.3337 1.21284 -9.25591 -0.416535 1.10632 -0.358434 -14.882 -8.76141 -0.0 0.0 -0.0 9.26804 9.87114 -18.2426 -16.9372 25.8924 -65.4024 0.236369 6.67853 -0.0137915 27.7365 -0.130748 3.50631 -0.462123 -12.9176 -2.40314 0.0 0.0 0.0 -3.18707 12.369 1.23787 -32.9886 -0.0819579 4.99269 25.1406 -3.98242 -3.40508 -22.8368 0.0 0.0 -0.0 0.0 -0.0 37.4198 -4.05744 -1.60219 -16.0288 -0.321787 -2.43073 -3.05336 14.8179 -0.489991 -3.18554 0.0 0.0 0.0 0.0 0.0 
1316.11488428 711.285 -1597.73251857 -8.67350975069 22.2763054322 2.5146995263 0.180574 0.270896 2.03147 0.182859 0.141107 2.04458 0.188952 -0.285165 2.02952 0.183206 0.0388683 2.04908 10.2352 13.1798 -2.64869 11.3658 24.0086 -3.43734 -0.0 0.0 -0.0 -0.180468 19.31 1.98643 0.28386 -23.9091 63.3331 1.89029 -43.1143 0.746842 -9.77548 -0.445167 1.1663 -0.0842517 -22.1776 -9.98373 -0.0 0.0 -0.0 9.92467 12.3278 -19.6208 -13.2379 26.099 -67.5612 0.321774 9.05681 -0.0254848 28.3203 -0.115208 3.57926 -1.04824 -17.1272 -0.570809 0.0 0.0 0.0 0.588023 9.7634 0.188402 -37.0424 -0.289408 5.57977 15.3264 0.0722424 -2.15342 -23.2029 0.0 0.0 -0.0 0.0 -0.0 35.7639 -7.08371 -1.69818 -19.6004 -0.300179 -2.97821 -2.51795 19.053 -0.41802 1.93202 -0.0 -0.0 0.0 0.0 0.0 
